<svg width="32" height="32" viewBox="0 0 32 32" fill="none" xmlns="http://www.w3.org/2000/svg">
<g id="Group 1364">
<circle id="Ellipse 190" cx="16" cy="16" r="16" fill="#92E9A6"/>
<path id="Vector" d="M20.1 16.0778C20.7 15.3389 21 14.3889 21 13.3333C21 11.3278 19.7 9.74444 18 9.21667L17 9.11111V7H15V9.11111H11V23.8889H15V26H17V23.8889H18C20.2 23.8889 22 21.9889 22 19.6667C22 18.0833 21.2 16.8167 20.1 16.0778ZM19 13.3333C19 14.4944 18.1 15.4444 17 15.4444V11.2222C18.1 11.2222 19 12.1722 19 13.3333ZM13 11.2222H15V15.4444H13V11.2222ZM13 21.7778V17.5556H15V21.7778H13ZM18 21.7778H17V17.5556H18C19.1 17.5556 20 18.5056 20 19.6667C20 20.8278 19.1 21.7778 18 21.7778Z" fill="black"/>
</g>
</svg>
