<svg width="36" height="36" viewBox="0 0 36 36" fill="none" xmlns="http://www.w3.org/2000/svg">
<path id="Vector" d="M18 0C8.2422 0 0 8.2422 0 18C0 27.7578 8.2422 36 18 36C27.7578 36 36 27.7578 36 18C36 8.2422 27.7578 0 18 0ZM18 9C21.1086 9 23.4 11.2896 23.4 14.4C23.4 17.5104 21.1086 19.8 18 19.8C14.8932 19.8 12.6 17.5104 12.6 14.4C12.6 11.2896 14.8932 9 18 9ZM8.8092 26.5896C10.4238 24.2136 13.1166 22.6296 16.2 22.6296H19.8C22.8852 22.6296 25.5762 24.2136 27.1908 26.5896C24.8904 29.052 21.627 30.6 18 30.6C14.373 30.6 11.1096 29.052 8.8092 26.5896Z" fill="white"/>
</svg>
