<svg width="131" height="131" viewBox="0 0 131 131" fill="none" xmlns="http://www.w3.org/2000/svg">
<g id="Group 983">
<g id="Ellipse 169" filter="url(#filter0_f_239_5637)">
<circle cx="65.5" cy="65.5" r="55.5" fill="#A4E4B2"/>
</g>
<g id="Group 982">
<circle id="Ellipse 168" cx="66" cy="66" r="50" fill="#2BA346"/>
<path id="Vector" d="M67.2941 92L66.6471 84.2H66C59.8745 84.2 54.6765 82.055 50.4059 77.765C46.1353 73.475 44 68.2533 44 62.1C44 55.9467 46.1353 50.725 50.4059 46.435C54.6765 42.145 59.8745 40 66 40C69.0627 40 71.921 40.5737 74.5748 41.7212C77.2286 42.8687 79.558 44.4503 81.5631 46.4662C83.5681 48.4821 85.1417 50.8221 86.284 53.4862C87.4263 56.1503 87.9983 59.0216 88 62.1C88 65.35 87.4711 68.47 86.4134 71.46C85.3557 74.45 83.9106 77.2233 82.0781 79.78C80.2456 82.3367 78.0672 84.655 75.5428 86.735C73.0184 88.815 70.2689 90.57 67.2941 92ZM65.9353 76.335C66.6686 76.335 67.2941 76.075 67.8118 75.555C68.3294 75.035 68.5882 74.4067 68.5882 73.67C68.5882 72.9333 68.3294 72.305 67.8118 71.785C67.2941 71.265 66.6686 71.005 65.9353 71.005C65.202 71.005 64.5765 71.265 64.0588 71.785C63.5412 72.305 63.2824 72.9333 63.2824 73.67C63.2824 74.4067 63.5412 75.035 64.0588 75.555C64.5765 76.075 65.202 76.335 65.9353 76.335ZM64.0588 68.08H67.9412C67.9412 66.78 68.0706 65.87 68.3294 65.35C68.5882 64.83 69.4078 63.8767 70.7882 62.49C71.5647 61.71 72.2118 60.865 72.7294 59.955C73.2471 59.045 73.5059 58.07 73.5059 57.03C73.5059 54.82 72.7613 53.1621 71.2722 52.0562C69.7831 50.9503 68.0257 50.3983 66 50.4C64.102 50.4 62.5059 50.9313 61.2118 51.9938C59.9176 53.0563 59.0118 54.3451 58.4941 55.86L62.1176 57.29C62.3333 56.5533 62.7431 55.8271 63.3471 55.1112C63.951 54.3953 64.8353 54.0383 66 54.04C67.1647 54.04 68.0378 54.365 68.6193 55.015C69.2008 55.665 69.4924 56.38 69.4941 57.16C69.4941 57.8967 69.2784 58.5579 68.8471 59.1438C68.4157 59.7297 67.898 60.3251 67.2941 60.93C65.7843 62.23 64.8672 63.2596 64.5428 64.0188C64.2184 64.778 64.0571 66.1317 64.0588 68.08Z" fill="white"/>
</g>
</g>
<defs>
<filter id="filter0_f_239_5637" x="0" y="0" width="131" height="131" filterUnits="userSpaceOnUse" color-interpolation-filters="sRGB">
<feFlood flood-opacity="0" result="BackgroundImageFix"/>
<feBlend mode="normal" in="SourceGraphic" in2="BackgroundImageFix" result="shape"/>
<feGaussianBlur stdDeviation="5" result="effect1_foregroundBlur_239_5637"/>
</filter>
</defs>
</svg>
