<svg width="21" height="19" viewBox="0 0 21 19" fill="none" xmlns="http://www.w3.org/2000/svg">
<path id="Vector" d="M12.5101 8.55H16.2835C16.8047 8.55 17.2266 8.9756 17.2266 9.5C17.2266 10.0244 16.8047 10.45 16.2835 10.45H11.567C11.4424 10.4493 11.3191 10.4241 11.2043 10.3759C11.0895 10.3278 10.9853 10.2576 10.8977 10.1694C10.8101 10.0812 10.7409 9.97666 10.6939 9.8618C10.6469 9.74695 10.6231 9.62401 10.6239 9.5V3.8C10.6239 3.2756 11.0458 2.85 11.567 2.85C12.0882 2.85 12.5101 3.2756 12.5101 3.8V8.55ZM18.2375 2.78255C20.0128 4.57124 21.0058 6.98581 21 9.5C21 14.7468 16.777 19 11.567 19V17.1C15.7346 17.1 19.1138 13.6971 19.1138 9.5C19.1186 7.48841 18.3239 5.55654 16.903 4.12585C16.2067 3.42071 15.3762 2.8607 14.46 2.47853C13.5439 2.09636 12.5604 1.89969 11.567 1.9C8.18399 1.9 5.32029 4.142 4.36286 7.2314L5.65344 6.35455C5.75603 6.28484 5.87154 6.23615 5.99323 6.2113C6.11492 6.18645 6.24036 6.18595 6.36225 6.20982C6.48413 6.23369 6.60003 6.28146 6.70318 6.35035C6.80634 6.41923 6.89469 6.50785 6.9631 6.61105C7.10311 6.82011 7.15486 7.07561 7.10718 7.32233C7.05949 7.56905 6.91619 7.7872 6.70823 7.92965L3.58012 10.0548C3.47753 10.1245 3.36202 10.1732 3.24033 10.1981C3.11864 10.2229 2.9932 10.2234 2.87131 10.1995C2.74942 10.1757 2.63353 10.1279 2.53037 10.059C2.42722 9.99012 2.33886 9.9015 2.27046 9.7983L0.161824 6.6481C0.0215118 6.43896 -0.030413 6.18325 0.0172854 5.93629C0.0649839 5.68934 0.208469 5.47101 0.416693 5.32855C0.519288 5.25884 0.634794 5.21015 0.756484 5.1853C0.878174 5.16045 1.00362 5.15995 1.1255 5.18382C1.24739 5.20769 1.36329 5.25546 1.46644 5.32435C1.5696 5.39323 1.65795 5.48185 1.72636 5.58505L2.52724 6.7811C3.68703 2.8595 7.29529 0 11.567 0C14.172 0 16.5307 1.064 18.2375 2.78255Z" fill="white"/>
</svg>
