<svg width="12" height="15" viewBox="0 0 12 15" fill="none" xmlns="http://www.w3.org/2000/svg">
<path id="Vector" d="M10.5 15C10.8978 15 11.2794 14.842 11.5607 14.5607C11.842 14.2794 12 13.8978 12 13.5V4.5L7.5 0H1.5C1.10218 0 0.720644 0.158035 0.43934 0.43934C0.158035 0.720644 0 1.10218 0 1.5V13.5C0 13.8978 0.158035 14.2794 0.43934 14.5607C0.720644 14.842 1.10218 15 1.5 15H10.5ZM6.75 1.5L10.5 5.25H6.75V1.5ZM2.25 4.5H4.5V6H2.25V4.5ZM2.25 7.5H9.75V9H2.25V7.5ZM2.25 10.5H9.75V12H2.25V10.5Z" fill="white"/>
</svg>
