<svg width="18" height="18" viewBox="0 0 18 18" fill="none" xmlns="http://www.w3.org/2000/svg">
<path id="Vector" d="M5.553 0.684C6.64657 0.233953 7.81745 0.00161237 9 0C10.179 0 11.349 0.234 12.447 0.684C13.536 1.134 14.526 1.8 15.363 2.637C16.2 3.474 16.866 4.464 17.316 5.553C17.766 6.651 18 7.821 18 9C18 11.385 17.055 13.68 15.363 15.363C14.5282 16.1998 13.5364 16.8635 12.4445 17.3161C11.3526 17.7686 10.182 18.001 9 18C7.81745 17.9984 6.64657 17.766 5.553 17.316C4.46198 16.8632 3.47105 16.1995 2.637 15.363C1.80018 14.5282 1.13646 13.5364 0.683929 12.4445C0.231401 11.3525 -0.00102064 10.182 3.36898e-06 9C3.36898e-06 6.615 0.945003 4.32 2.637 2.637C3.474 1.8 4.464 1.134 5.553 0.684ZM9 13.5L10.404 10.422L13.5 9L10.404 7.596L9 4.5L7.587 7.596L4.5 9L7.587 10.422L9 13.5Z" fill="white"/>
</svg>
