<svg width="125" height="121" viewBox="0 0 125 121" fill="none" xmlns="http://www.w3.org/2000/svg">
<g id="Group 292">
<path id="Vector" d="M125 101.347V120.38H89.9934V110.906H94.966V106.169H90.0155V110.927H85.0209V101.39H69.9927V106.148H64.9981V101.347H59.9814V96.6313H79.8715V82.2509H74.9874V91.7251H69.9706V82.2509H64.976V86.9457H54.9867V82.2086H45.0195V77.4081H54.9867V72.6287H60.0035V77.387H70.0148V72.6287H75.0095V77.387H94.8997V63.07H89.9934V58.2906H94.966V53.5536H90.0155V58.3118H84.9988V48.7319H79.982V43.9102H84.9988V39.1309H90.0155V48.6684H94.988V39.1943H100.071V48.7107H110.016V53.5113H100.071V58.2695H105.044V63.0489H100.071V67.7859H105.022V63.07H110.016C110.016 66.9189 110.016 70.7678 110.016 74.6166C110.016 75.5683 110.016 76.4988 110.016 77.4504H104.999V72.6922H100.071V77.4293H105.044C105.044 79.0153 105.044 80.6014 105.044 82.1875H110.016V77.4293H115.033V86.988H125V91.7674H119.961V101.326L125 101.347ZM110.016 110.906V115.664H119.961V106.169H114.989V110.927H109.994V101.39H104.977V106.127H100.071V110.906H110.016ZM85.043 82.2298V96.5045H100.071V82.2298H85.043ZM110.038 91.7885V96.5256H114.945V91.7885H110.038Z" fill="black"/>
<path id="Vector_2" d="M65.0201 24.7296H55.0087V20.0348H50.0362V15.2131H45.0194V10.4549H40.0469V5.69667H44.9973V0.875H60.0033V5.69667H55.0529V10.4549H60.0254V15.2131H70.0147V10.4337H75.0536V5.69667H80.0482V10.476H85.0208V39.1523H79.9819V29.5935H74.9873V24.7296H79.9598V20.0348H75.0315C75.0315 21.642 75.0315 23.2281 75.0315 24.8141H69.9926V20.0559H64.998V24.7296H65.0201Z" fill="black"/>
<path id="Vector_3" d="M35.0067 0.875V34.3729H0V0.875H35.0067ZM5.03884 29.5301H29.9458V5.69667H5.03884V29.5301Z" fill="black"/>
<path id="Vector_4" d="M0 86.9922H35.0067V120.49H0V86.9922ZM29.9458 115.668V91.835H5.03884V115.668H29.9458Z" fill="black"/>
<path id="Vector_5" d="M124.999 34.3729H89.9922V0.875H124.999V34.3729ZM119.96 5.69667H95.031V29.5512H119.96V5.69667Z" fill="black"/>
<path id="Vector_6" d="M39.9987 120.488V96.6336H44.9712V91.812H39.9766V82.2109H44.9712V87.0326H50.01V96.6336H55.0047V101.413H50.01C50.01 104.649 50.01 107.757 50.01 110.972H45.0375V115.667H49.9879V110.908H59.9993V115.667H55.0047V120.425L39.9987 120.488Z" fill="black"/>
<path id="Vector_7" d="M0 39.1523H24.929V43.9529H29.9458V48.7534H24.929V58.291H20.0007V53.5327H14.9618C14.9618 51.9255 14.9618 50.3183 14.9618 48.7111H19.9344V43.974H15.006V48.7322H10.0335V53.5327H14.9839V58.291H5.03884V43.9317H0V39.1523Z" fill="black"/>
<path id="Vector_8" d="M110.016 63.0902V58.3108H119.961V53.5315H115.054V39.1934H119.961V48.7309H125V63.0902H119.961V67.8696H124.911V77.4283H119.961V72.6278H114.988V63.0691H110.016V63.0902Z" fill="black"/>
<path id="Vector_9" d="M5.03884 58.2676V63.0469H15.006V67.8263H5.03884V82.2067H0V58.2887H5.03884V58.2676Z" fill="black"/>
<path id="Vector_10" d="M64.9961 120.485V115.663H69.9907V110.947H74.9854V106.168H79.9579V110.926H84.9747V115.663H75.0075V120.421L64.9961 120.485Z" fill="black"/>
<path id="Vector_11" d="M79.9766 5.69667V0.875H84.9712V5.69667H79.9766Z" fill="black"/>
<path id="Vector_12" d="M60.0017 34.3523V39.1317H74.9414V43.911H60.0238V48.7116H55.007V39.1951H49.9682V43.9533H39.9789V48.7327H35.0064V43.9322H30.0117V39.174H45.0177V34.3523H49.9903V29.6152H54.9628V34.3523H60.0017Z" fill="black"/>
<path id="Vector_13" d="M45.0188 77.4257H40.002V72.6675H24.9297V67.8459H34.8748V63.0876H30.0569V58.2871H39.9799V67.867H44.9746L45.0188 77.4257Z" fill="black"/>
<path id="Vector_14" d="M40.0004 77.4082V82.2087H10.0547V77.4082H40.0004Z" fill="black"/>
<path id="Vector_15" d="M40 58.285V48.7051H44.9725V58.2638H40V58.285Z" fill="black"/>
<path id="Vector_16" d="M24.9271 67.8484H20.043V63.1113H24.9271C24.9271 64.7045 24.9271 66.2905 24.9271 67.8696V67.8484Z" fill="black"/>
<path id="Vector_17" d="M34.9843 48.7051V53.4422H30.0117V48.7051H34.9843Z" fill="black"/>
<path id="Vector_18" d="M105.02 43.8881V39.1934H109.926V43.8881H105.02Z" fill="black"/>
<path id="Vector_19" d="M45.0194 34.3504H40.0469V24.834H44.9973C44.9973 28.0202 44.9973 31.1994 44.9973 34.3716L45.0194 34.3504Z" fill="black"/>
<path id="Vector_20" d="M44.9973 15.209V19.9461H40.0469V15.2301H44.9973V15.209Z" fill="black"/>
<path id="Vector_21" d="M70.0128 29.5886H64.9961V24.7246H69.9686L70.0128 29.5886Z" fill="black"/>
<path id="Vector_22" d="M65.0193 29.5684V34.3689H59.9805V29.5684H65.0193Z" fill="black"/>
<path id="Vector_23" d="M59.9805 10.4555V5.69727H70.014V10.4978L59.9805 10.4555Z" fill="black"/>
<path id="Vector_24" d="M80.0031 48.7051V53.4844H75.0306V58.285H84.9978V67.8649H79.981V63.0643H60.0909V58.2638H55.0078V53.4844H64.975V58.2215H69.9696V48.7051H80.0031Z" fill="black"/>
<path id="Vector_25" d="M54.983 48.7051V53.5056H50.0547V48.7262H54.983V48.7051Z" fill="black"/>
<path id="Vector_26" d="M69.9922 29.5684H75.0089V34.3054H69.9922V29.5684Z" fill="black"/>
<path id="Vector_27" d="M74.9844 72.6462V67.8457H80.0011V72.6462H74.9844Z" fill="black"/>
<path id="Vector_28" d="M84.9766 67.8669H89.927V72.6039H84.9987C84.9987 71.0108 84.9987 69.4247 84.9987 67.8457L84.9766 67.8669Z" fill="black"/>
<path id="Vector_29" d="M60.0025 67.8689H55.0078V63.0684H59.9804L60.0025 67.8689Z" fill="black"/>
<path id="Vector_30" d="M59.9805 72.6462V67.8457H64.9309V72.6462H59.9805Z" fill="black"/>
<path id="Vector_31" d="M50.0142 67.8475H45.0195V58.2676H54.9867V63.0681H49.9921V67.8686L50.0142 67.8475Z" fill="black"/>
<path id="Vector_32" d="M54.9843 67.8457V72.6462H50.0117V67.8457H54.9843Z" fill="black"/>
<path id="Vector_33" d="M10.0547 10.4688H24.9281V24.7223H10.0547V10.4688Z" fill="black"/>
<path id="Vector_34" d="M24.9281 96.627V110.902H10.0547V96.627H24.9281Z" fill="black"/>
<path id="Vector_35" d="M100.07 10.4688H114.988V24.7223H100.07V10.4688Z" fill="black"/>
</g>
</svg>
